<?xml version="1.0" standalone="no"?>
<!DOCTYPE svg PUBLIC "-//W3C//DTD SVG 20010904//EN"
 "http://www.w3.org/TR/2001/REC-SVG-20010904/DTD/svg10.dtd">
<svg version="1.0" xmlns="http://www.w3.org/2000/svg"
 width="500.000000pt" height="500.000000pt" viewBox="0 0 500.000000 500.000000"
 preserveAspectRatio="xMidYMid meet">
<metadata>
Created by potrace 1.11, written by Peter Selinger 2001-2013
</metadata>
<g transform="translate(0.000000,500.000000) scale(0.100000,-0.100000)"
fill="#000000" stroke="none">
<path d="M2364 4900 c-498 -34 -990 -232 -1383 -559 -194 -160 -395 -395 -524
-613 -457 -768 -455 -1724 5 -2488 59 -98 207 -305 213 -298 1 2 -1 62 -6 133
-28 450 82 897 309 1245 83 128 136 194 252 314 297 306 688 537 1205 713 175
59 236 74 550 133 556 105 784 186 983 348 29 24 55 42 57 40 2 -2 9 -80 15
-174 16 -222 8 -728 -15 -919 -164 -1390 -885 -2189 -2133 -2365 -75 -11 -223
-24 -327 -31 -105 -6 -191 -12 -193 -13 -5 -6 236 -115 332 -150 401 -150 884
-185 1316 -96 1047 216 1821 1084 1921 2154 14 156 7 408 -16 566 -185 1248
-1300 2145 -2561 2060z"/>
<path d="M3420 3127 c-825 -230 -1536 -726 -2121 -1477 -147 -189 -340 -488
-457 -710 l-62 -116 81 -79 c45 -44 83 -75 85 -70 21 55 217 438 274 535 438
749 1033 1324 1725 1665 138 68 356 158 483 199 37 13 52 23 52 36 0 24 -17
29 -60 17z"/>
</g>
</svg>
